<?xml version="1.0" encoding="utf-8"?>
<!-- Generator: Adobe Illustrator 16.0.2, SVG Export Plug-In . SVG Version: 6.00 Build 0)  -->
<!DOCTYPE svg PUBLIC "-//W3C//DTD SVG 1.1//EN" "http://www.w3.org/Graphics/SVG/1.1/DTD/svg11.dtd">
<svg version="1.1" id="圖層_1" xmlns="http://www.w3.org/2000/svg" xmlns:xlink="http://www.w3.org/1999/xlink" x="0px" y="0px"
	 width="179.371px" height="38.167px" viewBox="0 0 179.371 38.167" enable-background="new 0 0 179.371 38.167"
	 xml:space="preserve">
<g>
	<path fill="#3F4A5D" d="M6.987,0l8.544,1.996c0.611,0.16,0.918,0.467,0.918,0.918c0,0.426-0.267,0.706-0.799,0.838
		c-0.426,0.08-0.705,0.213-0.838,0.4c-1.783,3.38-3.487,6.107-5.11,8.184l1.078,0.199c0.505,0.187,0.758,0.374,0.758,0.559
		c0,0.319-0.133,0.559-0.399,0.718c-0.187,0.134-0.307,0.307-0.359,0.52V36.57c0,0.425-0.347,0.718-1.038,0.878
		c-3.008,0.372-4.605,0.559-4.791,0.559c-0.692,0-1.038-0.533-1.038-1.598V18.684c-1.038,1.012-2.116,1.957-3.234,2.834L0,21.12
		c1.703-3.141,3.154-6.414,4.352-9.821c0.932-2.608,1.69-5.296,2.276-8.064C6.867,1.796,6.987,0.718,6.987,0z M17.727,12.216
		c-1.651,0-3.301,0.107-4.951,0.319l-0.639-1.876c1.863,0.293,3.726,0.438,5.59,0.438h6.627V3.833c0-0.984-0.134-1.996-0.399-3.034
		l8.024,0.678c1.091,0.107,1.637,0.36,1.637,0.759c0,0.426-0.267,0.786-0.799,1.078c-0.346,0.267-0.559,0.599-0.639,0.998v6.667
		l2.515-4.152l3.114,3.433c0.452,0.506,0.678,0.906,0.678,1.198c0,0.506-0.438,0.758-1.317,0.758h-4.991v18.485
		c0,2.209-1.132,4.019-3.393,5.43c-1.784,0.931-3.448,1.45-4.991,1.557c-0.852-3.513-3.141-5.763-6.867-6.748v-0.917h6.228
		c0.799,0,1.198-0.399,1.198-1.198V12.216H17.727z M12.776,15.331c3.938,1.251,6.494,2.475,7.666,3.673
		c1.064,0.932,1.597,1.996,1.597,3.193c0,1.145-0.386,2.17-1.158,3.074c-0.852,0.958-1.876,1.438-3.074,1.438
		c-0.665,0-1.331-0.359-1.996-1.078c-0.586-0.585-0.932-1.917-1.039-3.993c-0.239-2.182-1.064-4.059-2.475-5.63L12.776,15.331z"/>
	<path fill="#3F4A5D" d="M51.965,22.437c-1.225,0-2.449,0.107-3.673,0.319l-0.639-1.876c1.437,0.293,2.874,0.439,4.312,0.439h9.781
		l2.635-3.233l3.154,2.555c0.479,0.373,0.719,0.665,0.719,0.878c0,0.613-0.253,0.918-0.758,0.918h-6.428v2.356
		c2.368,0.612,3.979,1.251,4.83,1.916c1.039,0.746,1.558,1.584,1.558,2.516c0,0.984-0.279,1.903-0.838,2.754
		c-0.772,0.825-1.583,1.237-2.435,1.237c-1.092,0-1.837-0.984-2.236-2.954c-0.24-0.852-0.533-1.623-0.878-2.316v4.552
		c0,1.49-0.307,2.541-0.918,3.154c-0.799,0.852-2.782,1.583-5.949,2.196c-0.399-1.624-0.892-2.782-1.478-3.473
		c-0.479-0.559-1.224-1.065-2.236-1.518c-0.877,0.932-1.81,1.797-2.794,2.595l-0.519-0.319c0.373-1.597,0.692-3.274,0.958-5.031
		c0.186-1.357,0.359-2.741,0.519-4.152c0.053-0.745,0.08-1.304,0.08-1.677l5.309,1.238v-3.074H51.965z M51.965,6.467
		c-1.277,0-2.555,0.107-3.833,0.319l-0.639-1.876c1.491,0.293,2.98,0.439,4.472,0.439h1.917V2.156c0-0.532-0.12-1.198-0.359-1.997
		l6.947,0.519c1.011,0.08,1.518,0.347,1.518,0.798c0,0.267-0.187,0.493-0.559,0.679c-0.267,0.213-0.439,0.426-0.519,0.638V5.35
		h1.197l2.755-3.354l3.233,2.635c0.026-0.346,0.053-0.679,0.08-0.999c0.106-1.41,0.173-2.515,0.2-3.313l7.865,1.278
		c0.532,0.187,0.798,0.453,0.798,0.798c0,0.347-0.253,0.586-0.758,0.719c-0.266,0.107-0.506,0.2-0.719,0.279
		c-0.692,2.023-1.357,3.792-1.996,5.31h4.232l2.116-2.156l5.15,3.593c0.292,0.266,0.439,0.573,0.439,0.918
		c-0.08,0.346-0.293,0.52-0.638,0.52c-0.374,0.026-0.639,0.053-0.798,0.079l-6.069,4.831l-0.639-0.399l0.918-6.268h-1.558
		c0,2.263-0.054,4.338-0.159,6.228c0.505,2.29,1.33,4.405,2.475,6.348c1.543,2.316,3.752,4.432,6.627,6.348l-0.319,0.879
		c-1.332,0.984-2.223,1.969-2.675,2.954c-0.719,1.331-1.118,3.087-1.198,5.27c-1.996-1.704-3.553-4.286-4.671-7.746
		c-0.479-1.383-0.852-3.22-1.118-5.509c-0.399,2.209-0.905,3.899-1.517,5.07c-2.023,3.806-5.576,6.534-10.66,8.185l-0.359-0.639
		c2.475-2.263,4.272-5.03,5.39-8.304c0.798-2.289,1.263-6.88,1.397-13.773c-1.065,1.357-2.143,2.382-3.234,3.074l-0.359-0.52
		c0.399-1.942,0.785-4.377,1.158-7.306c0.16-1.251,0.306-2.555,0.439-3.913h-7.026v4.072l1.676-2.036l3.074,2.435
		c0.453,0.373,0.679,0.665,0.679,0.878c0,0.586-0.24,0.878-0.719,0.878H52.763c-1.171,0-2.342,0.106-3.513,0.319l-0.639-1.876
		c1.383,0.293,2.768,0.44,4.152,0.44h1.118V6.467H51.965z M52.923,17.167c-1.171,0-2.343,0.107-3.514,0.319l-0.638-1.876
		c1.383,0.293,2.768,0.439,4.152,0.439h6.787l2.555-3.074l3.074,2.436c0.453,0.373,0.679,0.665,0.679,0.878
		c0,0.585-0.239,0.878-0.718,0.878H52.923z M54.041,28.026c-0.798,1.464-1.557,2.608-2.275,3.433
		c-0.134,0.16-0.267,0.32-0.399,0.479h1.797c0.585,0,0.877-0.266,0.877-0.798V28.026z"/>
	<path fill="#3F4A5D" d="M125.529,5.988c-0.267-0.16-0.506-0.333-0.719-0.519c-0.426-0.426-0.678-0.959-0.758-1.597
		c0-0.506-0.187-1.012-0.559-1.518c-0.239-0.452-0.798-0.971-1.677-1.557L122.255,0c3.274,0,5.416,0.239,6.427,0.718
		c1.064,0.453,1.597,1.038,1.597,1.757c0,0.932-0.306,1.756-0.918,2.476l1.836,1.517c0.559,0.426,0.838,0.772,0.838,1.038
		c0,0.585-0.293,0.878-0.878,0.878h-10.5c0.187,4.658,0.532,8.291,1.039,10.899c0.399-1.171,0.759-2.382,1.078-3.633
		c0.372-1.757,0.665-3.513,0.878-5.27l8.104,4.152c0.505,0.293,0.759,0.573,0.759,0.838c0,0.559-0.28,0.905-0.839,1.038
		c-0.479,0.054-0.812,0.133-0.998,0.239c-1.784,4.472-3.66,8.079-5.63,10.819c0.24,0.32,0.493,0.613,0.759,0.879
		c0.745,0.692,1.237,1.038,1.477,1.038c0.506,0,1.743-1.703,3.713-5.111l0.718,0.4c-0.772,1.411-1.158,2.834-1.158,4.272
		c0.053,2.103,0.652,3.593,1.797,4.471c0,0.932-0.386,1.81-1.158,2.635c-0.772,0.984-1.81,1.477-3.114,1.477
		c-1.783,0-3.926-0.984-6.428-2.954c-0.666-0.586-1.265-1.198-1.797-1.836c-3.167,2.208-7.373,3.859-12.616,4.95l-0.439-0.838
		c3.646-1.863,7.026-4.725,10.141-8.583c-0.373-0.825-0.732-1.69-1.078-2.596c-0.746-2.102-1.332-4.657-1.757-7.665
		c-0.186,0.187-0.306,0.346-0.359,0.479c-0.053,4.605-0.333,8.119-0.838,10.54c-0.373,1.677-1.052,2.728-2.036,3.154
		c-0.772,0.452-2.555,0.798-5.35,1.038c-0.133-2.688-0.985-4.404-2.555-5.15v-0.759h2.036c0.505,0,0.812-0.279,0.918-0.838
		c0.612-2.049,0.931-5.256,0.958-9.623h-3.473v3.593c-0.027,3.168-0.639,6.096-1.836,8.784c-1.358,3.034-3.66,5.802-6.907,8.303
		l-0.479-0.598c0.772-1.837,1.344-4.006,1.717-6.508c0.319-2.315,0.492-5.642,0.519-9.981V7.905c0-1.277-0.119-2.582-0.358-3.913
		l8.024,3.273h9.223c-0.027-1.118-0.04-2.262-0.04-3.433c0-1.278-0.133-2.555-0.399-3.833l7.865,0.638
		c0.692,0.027,1.038,0.28,1.038,0.758c0,0.374-0.187,0.693-0.559,0.958c-0.346,0.107-0.573,0.307-0.678,0.599
		c0.026,1.517,0.053,2.954,0.08,4.312h3.913L125.529,5.988z M113.831,15.77c-0.239-2.262-0.399-4.724-0.479-7.386h-9.941v7.346
		h3.034l2.515-2.954L113.831,15.77z"/>
	<path fill="#3F4A5D" d="M153.42,7.106v16.049c1.862-0.213,3.726-0.453,5.589-0.719c0.665-2.528,1.118-6.201,1.357-11.019h-0.479
		c-1.278,0-2.555,0.107-3.833,0.319l-0.639-1.796c1.49,0.24,2.98,0.359,4.472,0.359h0.519c0.08-2.049,0.133-4.271,0.16-6.667
		c0-1.277-0.12-2.488-0.36-3.632l7.946,0.638c0.984,0.054,1.477,0.28,1.477,0.679c0,0.479-0.227,0.812-0.678,0.998
		c-0.374,0.16-0.613,0.374-0.719,0.639c-0.027,2.688-0.133,5.137-0.319,7.346h1.158l3.394-3.913l6.068,3.873
		c0.559,0.374,0.838,0.759,0.838,1.158c0,0.346-0.267,0.693-0.798,1.038c-0.427,0.16-0.693,0.4-0.798,0.719
		c-0.08,9.688-0.454,16.289-1.118,19.802c-0.319,1.862-1.104,3.087-2.356,3.673c-1.863,0.771-3.846,1.223-5.948,1.357
		c-0.346-3.381-2.05-5.497-5.111-6.348v-0.838h5.071c0.532,0,0.878-0.639,1.038-1.917c0.292-1.863,0.439-7.691,0.439-17.487h-1.957
		c-0.293,4.072-0.825,7.386-1.597,9.941c-1.172,3.967-2.862,7.133-5.071,9.502c-2.502,2.847-5.883,5.282-10.141,7.306l-0.399-0.639
		c3.939-4.95,6.521-9.328,7.746-13.135c0.08-0.186,0.146-0.346,0.199-0.479l-13.374,7.306c-0.187,0.319-0.333,0.599-0.44,0.838
		c-0.213,0.453-0.506,0.679-0.877,0.679c-0.347,0-0.653-0.4-0.918-1.198l-1.757-7.506c1.518,0,2.582-0.026,3.194-0.079
		c0.505-0.026,1.011-0.053,1.517-0.08V7.146c-1.092,0.053-2.183,0.146-3.274,0.279l-0.639-1.877c1.81,0.293,3.619,0.439,5.43,0.439
		h3.913l3.313-4.232l3.992,3.313c0.612,0.479,0.918,0.878,0.918,1.198c0,0.559-0.319,0.838-0.958,0.838H153.42z"/>
</g>
</svg>
